#Body_2616_155.obj

v -0.8825449 0.2559434 0.3449171
v -0.8825449 -0.2559296 0.3449171
v -1.25616 -0.2559296 0.3449171
v -1.25616 0.2559434 0.3449171
v -1.25616 -0.3083354 0.1638396
v -0.8825449 -0.3083354 0.1638396
v -0.8825449 -0.3083354 4.594164E-07
v -1.25616 -0.3083354 4.594164E-07
v 0.942912 0.3083492 0.1638396
v 0.942912 -0.3083354 4.594164E-07
v 0.942912 -0.3083354 0.1638396
v 0.942912 0.3083492 4.594164E-07
v 0.1236915 0.3083492 0.1638396
v 0.1236915 0.3083492 4.594164E-07
v 0.942912 0.3083492 4.594164E-07
v 0.942912 0.3083492 0.1638396
v -1.25616 -0.3083354 0.1638396
v -1.25616 0.3083492 4.594164E-07
v -1.25616 0.3083492 0.1638396
v -1.25616 -0.3083354 4.594164E-07
v -1.25616 -0.3083354 0.2828754
v -1.25616 0.3083492 0.2828754
v -1.25616 -0.2559296 0.3449171
v -1.25616 0.2559434 0.3449171
v -0.1177105 0.3083492 0.1638396
v -0.1177105 -0.3083354 0.1638396
v -0.8825449 -0.3083354 0.1638396
v -0.8825449 0.3083492 0.1638396
v -0.8825449 -0.3083354 0.1638396
v -0.1177105 -0.3083354 0.1638396
v -0.1177105 -0.3083354 4.594164E-07
v -0.8825449 -0.3083354 4.594164E-07
v -0.8825449 0.3083492 0.1638396
v -1.25616 0.3083492 0.1638396
v -1.25616 0.3083492 4.594164E-07
v -0.8825449 0.3083492 4.594164E-07
v -0.8825449 -0.3083354 0.2828754
v -1.25616 -0.3083354 0.1638396
v -1.25616 -0.3083354 0.2828754
v -0.8825449 -0.3083354 0.1638396
v -0.8825449 0.3083492 0.2828754
v -0.8825449 -0.3083354 0.1638396
v -0.8825449 -0.3083354 0.2828754
v -0.8825449 0.3083492 0.1638396
v -0.8825449 0.2559434 0.3449171
v -0.8825449 -0.2559296 0.3449171
v -1.25616 0.3083492 0.2828754
v -0.8825449 0.3083492 0.1638396
v -0.8825449 0.3083492 0.2828754
v -1.25616 0.3083492 0.1638396
v -0.8825449 -0.2559296 0.3449171
v -1.25616 -0.3083354 0.2828754
v -1.25616 -0.2559296 0.3449171
v -0.8825449 -0.3083354 0.2828754
v -1.25616 0.2559434 0.3449171
v -0.8825449 0.3083492 0.2828754
v -0.8825449 0.2559434 0.3449171
v -1.25616 0.3083492 0.2828754
v -0.1177105 0.3083492 0.1638396
v -0.8825449 0.3083492 0.1638396
v -0.8825449 0.3083492 4.594164E-07
v -0.1177105 0.3083492 4.594164E-07
v 0.1236915 0.3083492 0.1638396
v 0.942912 0.3083492 0.1638396
v 0.942912 -0.3083354 0.1638396
v 0.1236915 -0.3083354 0.1638396
v 0.942912 -0.3083354 0.1638396
v 0.942912 -0.3083354 4.594164E-07
v 0.1236915 -0.3083354 4.594164E-07
v 0.1236915 -0.3083354 0.1638396
v -0.1177105 0.3083492 0.1638396
v 0.1236915 0.3083492 4.594164E-07
v 0.1236915 0.3083492 0.1638396
v -0.1177105 0.3083492 4.594164E-07
v -0.1177105 0.3083492 0.1638396
v 0.1236915 0.3083492 0.1638396
v 0.1236915 -0.3083354 0.1638396
v -0.1177105 -0.3083354 0.1638396
v 0.1236915 -0.3083354 0.1638396
v -0.1177105 -0.3083354 4.594164E-07
v -0.1177105 -0.3083354 0.1638396
v 0.1236915 -0.3083354 4.594164E-07

vn 0 1 5.960464E-08
vn 0 1 5.960464E-08
vn 0 1 5.960464E-08
vn 0 1 5.960464E-08
vn 0 -5.960464E-08 1
vn 0 -5.960464E-08 1
vn 0 -5.960464E-08 1
vn 0 -5.960464E-08 1
vn 1 0 0
vn 1 0 0
vn 1 0 0
vn 1 0 0
vn 0 5.960464E-08 -1
vn 0 5.960464E-08 -1
vn 0 5.960464E-08 -1
vn 0 5.960464E-08 -1
vn -1 0 0
vn -1 0 0
vn -1 0 0
vn -1 0 0
vn -1 0 0
vn -1 0 0
vn -1 0 0
vn -1 0 0
vn 0 1 5.960464E-08
vn 0 1 5.960464E-08
vn 0 1 5.960464E-08
vn 0 1 5.960464E-08
vn 0 -5.960464E-08 1
vn 0 -5.960464E-08 1
vn 0 -5.960464E-08 1
vn 0 -5.960464E-08 1
vn 0 5.960464E-08 -1
vn 0 5.960464E-08 -1
vn 0 5.960464E-08 -1
vn 0 5.960464E-08 -1
vn 0 -5.960464E-08 1
vn 0 -5.960464E-08 1
vn 0 -5.960464E-08 1
vn 0 -5.960464E-08 1
vn 1 0 0
vn 1 0 0
vn 1 0 0
vn 1 0 0
vn 1 0 -2.384186E-07
vn 1 0 -2.384186E-07
vn 0 5.960464E-08 -1
vn 0 5.960464E-08 -1
vn 0 5.960464E-08 -1
vn 0 5.960464E-08 -1
vn 0 0.6455078 0.7641602
vn 0 0.6455078 0.7641602
vn 0 0.6455078 0.7641602
vn 0 0.6455078 0.7641602
vn 0 0.6455078 -0.7641602
vn 0 0.6455078 -0.7641602
vn 0 0.6455078 -0.7641602
vn 0 0.6455078 -0.7641602
vn 0 5.960464E-08 -1
vn 0 5.960464E-08 -1
vn 0 5.960464E-08 -1
vn 0 5.960464E-08 -1
vn 0 1 5.960464E-08
vn 0 1 5.960464E-08
vn 0 1 5.960464E-08
vn 0 1 5.960464E-08
vn 0 -5.960464E-08 1
vn 0 -5.960464E-08 1
vn 0 -5.960464E-08 1
vn 0 -5.960464E-08 1
vn 0 5.960464E-08 -1
vn 0 5.960464E-08 -1
vn 0 5.960464E-08 -1
vn 0 5.960464E-08 -1
vn 0 1 5.960464E-08
vn 0 1 5.960464E-08
vn 0 1 5.960464E-08
vn 0 1 5.960464E-08
vn 0 -5.960464E-08 1
vn 0 -5.960464E-08 1
vn 0 -5.960464E-08 1
vn 0 -5.960464E-08 1

vt 0.6611328 0.5424805
vt 0.6611328 0.940918
vt 0.9516602 0.940918
vt 0.9516602 0.5424805
vt 0.6689453 0.6567383
vt 0.953125 0.6567383
vt 0.953125 0.5322266
vt 0.6689453 0.5322266
vt 0.333252 0.04852295
vt 0.5297852 0.100769
vt 0.5297852 0.04852295
vt 0.333252 0.100769
vt 0.3215332 0.05654907
vt 0.3215332 0.1306152
vt 0.6918945 0.1306152
vt 0.6918945 0.05654907
vt 0.8095703 0.9765625
vt 0.9482422 0.4538574
vt 0.8095703 0.4538574
vt 0.9482422 0.9765625
vt 0.7084961 0.9765625
vt 0.7084961 0.4538574
vt 0.6557617 0.9321289
vt 0.6557617 0.498291
vt 0.5429688 0.2054443
vt 0.5429688 0.008705139
vt 0.2993164 0.008705139
vt 0.2993164 0.2054443
vt 0.5942383 0.144165
vt 0.9404297 0.144165
vt 0.9404297 0.07006836
vt 0.5942383 0.07006836
vt 0.9516602 0.5141602
vt 0.6611328 0.5141602
vt 0.6611328 0.6416016
vt 0.9516602 0.6416016
vt 0.9604492 0.8081055
vt 0.6694336 0.7158203
vt 0.6694336 0.8081055
vt 0.9604492 0.7158203
vt 0.7695313 0.3740234
vt 0.4904785 0.3200684
vt 0.4904785 0.3740234
vt 0.7695313 0.3200684
vt 0.7456055 0.4020996
vt 0.5141602 0.4020996
vt 0.6625977 0.5966797
vt 0.9536133 0.6850586
vt 0.9536133 0.5966797
vt 0.6625977 0.6850586
vt 0.9604492 0.9033203
vt 0.6694336 0.8081055
vt 0.6694336 0.9033203
vt 0.9604492 0.8081055
vt 0.6625977 0.515625
vt 0.9536133 0.5966797
vt 0.9536133 0.515625
vt 0.6625977 0.5966797
vt 0.9194336 0.08117676
vt 0.5732422 0.08117676
vt 0.5732422 0.1552734
vt 0.9194336 0.1552734
vt 0.2954102 0.2067871
vt 0.5566406 0.2067871
vt 0.5566406 0.01004791
vt 0.2954102 0.01004791
vt 0.9785156 0.1407471
vt 0.9785156 0.06658936
vt 0.6079102 0.06658936
vt 0.6079102 0.1407471
vt 0.3000488 0.3586426
vt 0.3740234 0.2495117
vt 0.3000488 0.2495117
vt 0.3740234 0.3586426
vt 0.4313965 0.4016113
vt 0.4313965 0.2924805
vt 0.1523438 0.2924805
vt 0.1523438 0.4016113
vt 0.3500977 0.2749023
vt 0.276123 0.3840332
vt 0.3500977 0.3840332
vt 0.276123 0.2749023

g Body_2616_155
usemtl Body_2616_155
usemap Body_2616_155
f 1/1/1 3/3/3 2/2/2
f 3/3/3 1/1/1 4/4/4
f 5/5/5 7/7/7 6/6/6
f 7/7/7 5/5/5 8/8/8
f 9/9/9 11/11/11 10/10/10
f 9/9/9 10/10/10 12/12/12
f 13/13/13 15/15/15 14/14/14
f 15/15/15 13/13/13 16/16/16
f 17/17/17 19/19/19 18/18/18
f 17/17/17 18/18/18 20/20/20
f 21/21/21 19/19/19 17/17/17
f 21/21/21 22/22/22 19/19/19
f 22/22/22 21/21/21 23/23/23
f 22/22/22 23/23/23 24/24/24
f 25/25/25 27/27/27 26/26/26
f 27/27/27 25/25/25 28/28/28
f 29/29/29 31/31/31 30/30/30
f 31/31/31 29/29/29 32/32/32
f 33/33/33 35/35/35 34/34/34
f 35/35/35 33/33/33 36/36/36
f 37/37/37 39/39/39 38/38/38
f 37/37/37 38/38/38 40/40/40
f 41/41/41 43/43/43 42/42/42
f 41/41/41 42/42/42 44/44/44
f 43/43/43 41/41/41 45/45/45
f 43/43/43 45/45/45 46/46/46
f 47/47/47 49/49/49 48/48/48
f 47/47/47 48/48/48 50/50/50
f 51/51/51 53/53/53 52/52/52
f 51/51/51 52/52/52 54/54/54
f 55/55/55 57/57/57 56/56/56
f 55/55/55 56/56/56 58/58/58
f 59/59/59 61/61/61 60/60/60
f 61/61/61 59/59/59 62/62/62
f 63/63/63 65/65/65 64/64/64
f 65/65/65 63/63/63 66/66/66
f 67/67/67 69/69/69 68/68/68
f 69/69/69 67/67/67 70/70/70
f 71/71/71 73/73/73 72/72/72
f 71/71/71 72/72/72 74/74/74
f 75/75/75 77/77/77 76/76/76
f 77/77/77 75/75/75 78/78/78
f 79/79/79 81/81/81 80/80/80
f 79/79/79 80/80/80 82/82/82
